<?xml version="1.0" encoding="UTF-8"?>
<svg width="58px" height="54px" viewBox="0 0 58 54" version="1.1" xmlns="http://www.w3.org/2000/svg" xmlns:xlink="http://www.w3.org/1999/xlink">
    <!-- Generator: sketchtool 50.2 (55047) - http://www.bohemiancoding.com/sketch -->
    <title>4D190DB3-D48A-45B9-A3F7-162AD78D5D21</title>
    <desc>Created with sketchtool.</desc>
    <defs></defs>
    <g id="main" stroke="none" stroke-width="1" fill="none" fill-rule="evenodd">
        <g id="home-screen-1" transform="translate(-763.000000, -1808.000000)" fill="#055E7D" stroke="#005D7E">
            <g id="section-4" transform="translate(189.000000, 1795.000000)">
                <g id="items-info" transform="translate(561.000000, 14.000000)">
                    <g id="item-info-1">
                        <g id="Icon-1">
                            <path d="M40.7832922,25.8264373 L40.7832922,49.7739008 L23.3238354,38.9975422 L23.3238354,26.5415691 L33.7264722,33.0496946 C33.7874382,33.1106607 33.9093703,33.1112703 34.0306927,33.1112703 C34.0386183,33.1112703 34.0477632,33.1094414 34.0556888,33.1088317 C34.0703207,33.1094414 34.0831235,33.1112703 34.0971457,33.1112703 C34.1178742,33.1112703 34.1373833,33.1027351 34.1581118,33.1009061 C34.168476,33.0996868 34.1782306,33.0984675 34.1892045,33.0960288 C34.3367423,33.0789583 34.4800125,33.0283565 34.5799968,32.9283722 L40.7832922,25.8264373 Z M42.1214969,24.2949702 L49.3008587,32.6851177 C49.5416746,32.9283722 49.8428468,32.9289819 50.084882,32.8070498 L60.6765135,26.5415691 L60.6765135,39.0591179 L42.0001745,50.5250025 L42.0001745,24.4333631 L42.1214969,24.2949702 Z M22.837936,13.7307735 L40.7832922,23.4792445 L40.7832922,23.9590473 L33.9770426,31.7127092 L19.1958244,22.506836 L15.8286696,20.3931432 L22.837936,13.7307735 Z M60.8008842,13.5692134 L68.1216872,20.7680843 L49.8434565,31.5304207 L42.8463832,23.3304873 L60.8008842,13.5692134 Z M41.6959539,3.29948273 L41.6959539,19.9450427 C41.6959539,20.1291602 41.817886,20.2517019 42.0001745,20.2517019 C42.182463,20.2517019 42.304395,20.1279408 42.304395,19.8828573 L42.304395,3.30192137 L59.5321808,12.8235987 L41.7246079,22.5232969 L24.0084842,12.9308989 L41.6959539,3.29948273 Z M49.725792,1.40953525 L67.4906886,10.8525664 L61.1636322,12.0182372 C61.0990082,12.0310401 61.0398711,12.0633521 60.9831727,12.1005414 L43.6767408,2.5794737 L49.725792,1.40953525 Z M34.0910491,1.28760316 L40.4290794,2.58435099 L22.9946188,12.1200505 C22.9616971,12.106638 22.9324334,12.0859095 22.8976828,12.0792032 L16.3883379,10.7306343 L34.0910491,1.28760316 Z M34.1520152,2.29865385e-07 C33.9697267,2.29865385e-07 33.8484042,-0.000609430611 33.7264722,0.0609662775 L14.3197599,10.5459071 C14.0765053,10.6684489 13.9545733,10.9141421 14.0155393,11.1592256 C14.0765053,11.4043091 14.2594035,11.5890362 14.502658,11.6506119 L21.7374989,13.1735438 L14.7678603,19.781044 C14.6825079,19.7627542 14.5977651,19.7584866 14.5172899,19.7749474 C14.3648748,19.8054305 14.2277011,19.8968795 14.1368617,20.050514 C13.9539636,20.3571732 14.0155393,20.7247984 14.3197599,20.9089159 L22.1069531,25.7813224 L22.1069531,39.3657772 C22.1069531,39.6108607 22.2288852,39.7949781 22.4111737,39.9175199 L41.6959539,51.7510297 C41.7569199,51.8126054 41.8782424,51.8138248 42.0001745,51.8138248 C42.1214969,51.8138248 42.243429,51.8126054 42.304395,51.7510297 L61.5891752,39.9175199 C61.7714637,39.7949781 61.8927861,39.5498946 61.8927861,39.3657772 L61.8927861,25.82156 L69.5092745,21.3149498 C69.6903436,21.2539837 69.8110564,21.0723049 69.8110564,20.8900164 C69.8110564,20.707728 69.7513097,20.5242202 69.6305969,20.4028977 L62.2146869,13.0973362 L69.4976909,11.772544 C69.7409454,11.772544 69.9238436,11.5268508 69.9842,11.2817673 C70.0457757,11.0360742 69.9238436,10.7909907 69.6799794,10.6684489 L50.1525544,0.244474081 C50.0306223,0.182898373 49.8471145,0.182898373 49.725792,0.182898373 L42.0062711,1.630842 L34.1520152,2.29865385e-07 Z" id="ic-box-opened"></path>
                        </g>
                    </g>
                </g>
            </g>
        </g>
    </g>
</svg>