<?xml version="1.0" encoding="UTF-8"?>
<svg width="28px" height="30px" viewBox="0 0 28 30" version="1.1" xmlns="http://www.w3.org/2000/svg" xmlns:xlink="http://www.w3.org/1999/xlink">
    <!-- Generator: sketchtool 50.2 (55047) - http://www.bohemiancoding.com/sketch -->
    <title>978D20EB-C055-40CF-B5FA-E4D6EA86F355</title>
    <desc>Created with sketchtool.</desc>
    <defs></defs>
    <g id="main" stroke="none" stroke-width="1" fill="none" fill-rule="evenodd" opacity="0.6">
        <g id="home-screen-1" transform="translate(-1022.000000, -21.000000)" fill="#FFFFFF">
            <g id="header-section">
                <g id="Menu-Bar">
                    <g id="contact-info" transform="translate(1022.000000, 21.000000)">
                        <path d="M22.2058163,20.494898 C22.6285714,20.494898 22.9711224,20.837449 22.9711224,21.2602041 C22.9711224,21.6829592 22.6285714,22.0255102 22.2058163,22.0255102 C21.7830612,22.0255102 21.4405102,21.6829592 21.4405102,21.2602041 C21.4405102,20.837449 21.7830612,20.494898 22.2058163,20.494898 Z M22.2058163,17.3479592 C22.6285714,17.3479592 22.9711224,17.6905102 22.9711224,18.1132653 C22.9711224,18.5360204 22.6285714,18.8785714 22.2058163,18.8785714 C21.7830612,18.8785714 21.4405102,18.5360204 21.4405102,18.1132653 C21.4405102,17.6905102 21.7830612,17.3479592 22.2058163,17.3479592 Z M22.2058163,14.2040816 C22.6285714,14.2040816 22.9711224,14.5466327 22.9711224,14.9693878 C22.9711224,15.3921429 22.6285714,15.7346939 22.2058163,15.7346939 C21.7830612,15.7346939 21.4405102,15.3921429 21.4405102,14.9693878 C21.4405102,14.5466327 21.7830612,14.2040816 22.2058163,14.2040816 Z M19.1017347,20.494898 C19.5244898,20.494898 19.8670408,20.837449 19.8670408,21.2602041 C19.8670408,21.6829592 19.5244898,22.0255102 19.1017347,22.0255102 C18.6789796,22.0255102 18.3364286,21.6829592 18.3364286,21.2602041 C18.3364286,20.837449 18.6789796,20.494898 19.1017347,20.494898 Z M19.1017347,17.3479592 C19.5244898,17.3479592 19.8670408,17.6905102 19.8670408,18.1132653 C19.8670408,18.5360204 19.5244898,18.8785714 19.1017347,18.8785714 C18.6789796,18.8785714 18.3364286,18.5360204 18.3364286,18.1132653 C18.3364286,17.6905102 18.6789796,17.3479592 19.1017347,17.3479592 Z M19.1017347,14.2040816 C19.5244898,14.2040816 19.8670408,14.5466327 19.8670408,14.9693878 C19.8670408,15.3921429 19.5244898,15.7346939 19.1017347,15.7346939 C18.6789796,15.7346939 18.3364286,15.3921429 18.3364286,14.9693878 C18.3364286,14.5466327 18.6789796,14.2040816 19.1017347,14.2040816 Z M16.0007143,20.494898 C16.4234694,20.494898 16.7660204,20.837449 16.7660204,21.2602041 C16.7660204,21.6829592 16.4234694,22.0255102 16.0007143,22.0255102 C15.5782653,22.0255102 15.2354082,21.6829592 15.2354082,21.2602041 C15.2354082,20.837449 15.5782653,20.494898 16.0007143,20.494898 Z M16.0007143,17.3479592 C16.4234694,17.3479592 16.7660204,17.6905102 16.7660204,18.1132653 C16.7660204,18.5360204 16.4234694,18.8785714 16.0007143,18.8785714 C15.5782653,18.8785714 15.2354082,18.5360204 15.2354082,18.1132653 C15.2354082,17.6905102 15.5782653,17.3479592 16.0007143,17.3479592 Z M16.0007143,14.2040816 C16.4234694,14.2040816 16.7660204,14.5466327 16.7660204,14.9693878 C16.7660204,15.3921429 16.4234694,15.7346939 16.0007143,15.7346939 C15.5782653,15.7346939 15.2354082,15.3921429 15.2354082,14.9693878 C15.2354082,14.5466327 15.5782653,14.2040816 16.0007143,14.2040816 Z M22.3588776,8.6755102 C22.3588776,8.60265306 22.300102,8.54387755 22.2272449,8.54387755 L15.9792857,8.54387755 C15.9067347,8.54387755 15.8476531,8.60265306 15.8476531,8.6755102 L15.8476531,10.6836735 C15.8476531,10.7565306 15.9067347,10.8153061 15.9792857,10.8153061 L22.2272449,10.8153061 C22.300102,10.8153061 22.3588776,10.7565306 22.3588776,10.6836735 L22.3588776,8.6755102 Z M22.2272449,12.3489796 L15.9792857,12.3489796 C15.0609184,12.3471429 14.3170408,11.6020408 14.3170408,10.6836735 L14.3170408,8.67857143 C14.3185714,7.76112245 15.0621429,7.01816327 15.9792857,7.01632653 L22.2272449,7.01632653 C23.1443878,7.01816327 23.8876531,7.76112245 23.8894898,8.67857143 L23.8894898,10.6867347 C23.8876531,11.6041837 23.1443878,12.3471429 22.2272449,12.3489796 Z M25.7231633,6.67653061 C25.7231633,5.86346939 25.0640816,5.20408163 24.2507143,5.20408163 L12.5262245,5.20408163 L12.5262245,20.3540816 C12.5262245,21.4766327 11.6164286,22.3867347 10.4938776,22.3867347 L8.84663265,22.3867347 L8.84663265,26.3265306 C8.84663265,27.51 9.80632653,28.4693878 10.9894898,28.4693878 L16.1935714,28.4693878 C17.3773469,28.4693878 18.3364286,27.51 18.3364286,26.3265306 L18.3364286,25.8918367 L11.0877551,25.8918367 C10.665,25.8918367 10.322449,25.5492857 10.322449,25.1265306 C10.322449,24.7037755 10.665,24.3612245 11.0877551,24.3612245 L24.2507143,24.3612245 C25.0640816,24.3612245 25.7231633,23.7021429 25.7231633,22.8887755 L25.7231633,6.67653061 Z M10.9833673,3.81122449 C10.9833673,2.55153061 9.96244898,1.53061224 8.70306122,1.53061224 L7.43877551,1.53061224 C6.18030612,1.53244898 5.16122449,2.5527551 5.16122449,3.81122449 L5.16122449,20.3418367 C5.16122449,20.6188776 5.38591837,20.8438776 5.66326531,20.8438776 L10.4816327,20.8438776 C10.7586735,20.8438776 10.9833673,20.6188776 10.9833673,20.3418367 L10.9833673,3.81122449 Z M3.61530612,20.3540816 L3.61530612,5.20408163 L3.00306122,5.20408163 C2.19214286,5.21265306 1.54071429,5.87479592 1.54591837,6.68571429 L1.54591837,22.8887755 C1.54591837,23.7021429 2.20530612,24.3612245 3.01836735,24.3612245 L7.31020408,24.3612245 L7.31020408,22.3867347 L5.66326531,22.3867347 L5.64795918,22.3867347 C4.52510204,22.3867347 3.61530612,21.4766327 3.61530612,20.3540816 Z M24.2415306,25.8918367 L19.8578571,25.8918367 L19.8578571,26.3265306 C19.8578571,28.3555102 18.2133673,30 16.1843878,30 L10.9806122,30 C8.95163265,30 7.30714286,28.3555102 7.30714286,26.3265306 L7.30714286,25.8918367 L3.00306122,25.8918367 C1.34510204,25.89 0.00153061224,24.5464286 0,22.8887755 L0,6.67653061 C0.00153061224,5.01857143 1.34510204,3.67530612 3.00306122,3.67346939 L3.63673469,3.67346939 C3.71081633,1.62612245 5.38989796,0.00367346939 7.43877551,0 L8.70581633,0 C10.7546939,0.00367346939 12.4340816,1.62612245 12.5078571,3.67346939 L24.2415306,3.67346939 C25.9016327,3.67683673 27.244898,5.02530612 27.2415306,6.68571429 L27.2415306,22.8887755 C27.2396939,24.5452041 25.8982653,25.8884694 24.2415306,25.8918367 Z" id="ic-central-phone"></path>
                    </g>
                </g>
            </g>
        </g>
    </g>
</svg>