<?xml version="1.0" encoding="UTF-8"?>
<svg width="15px" height="13px" viewBox="0 0 15 13" version="1.1" xmlns="http://www.w3.org/2000/svg" xmlns:xlink="http://www.w3.org/1999/xlink">
    <!-- Generator: sketchtool 50.2 (55047) - http://www.bohemiancoding.com/sketch -->
    <title>A17E23EA-0093-4BC4-9723-965AD09A35E2</title>
    <desc>Created with sketchtool.</desc>
    <defs></defs>
    <g id="main" stroke="none" stroke-width="1" fill="none" fill-rule="evenodd">
        <g id="home-screen-1" transform="translate(-876.000000, -3394.000000)" fill="#EE3643">
            <g id="section-7" transform="translate(0.000000, 3194.000000)">
                <g id="input-and-info" transform="translate(601.000000, 83.000000)">
                    <g id="info-contact" transform="translate(62.000000, 110.000000)">
                        <g id="Email" transform="translate(213.000000, 0.000000)">
                            <path d="M13.911,18.721 C13.661,18.968 13.361,19.091 13.01,19.091 L1.275,19.091 C0.925,19.091 0.624,18.968 0.375,18.721 C0.125,18.474 0,18.177 0,17.83 L0,11.571 C0.234,11.828 0.502,12.057 0.805,12.257 C2.729,13.549 4.05,14.456 4.767,14.976 C5.07,15.197 5.316,15.369 5.505,15.493 C5.693,15.616 5.944,15.742 6.258,15.871 C6.571,16 6.864,16.064 7.135,16.064 L7.143,16.064 L7.151,16.064 C7.422,16.064 7.714,16 8.028,15.871 C8.341,15.742 8.592,15.616 8.781,15.493 C8.97,15.369 9.216,15.197 9.518,14.976 C10.422,14.33 11.745,13.423 13.488,12.257 C13.791,12.052 14.057,11.823 14.286,11.571 L14.286,17.83 C14.286,18.177 14.161,18.473 13.911,18.721 L13.911,18.721 Z M12.922,11.413 C10.924,12.785 9.68,13.639 9.192,13.975 C9.139,14.012 9.025,14.092 8.853,14.215 C8.68,14.339 8.537,14.439 8.422,14.515 C8.308,14.591 8.17,14.676 8.008,14.771 C7.846,14.866 7.693,14.937 7.549,14.984 C7.406,15.031 7.273,15.055 7.151,15.055 L7.143,15.055 L7.135,15.055 C7.013,15.055 6.88,15.031 6.736,14.984 C6.593,14.937 6.44,14.866 6.278,14.771 C6.116,14.677 5.977,14.591 5.863,14.515 C5.749,14.439 5.605,14.339 5.433,14.215 C5.26,14.092 5.147,14.012 5.094,13.975 C4.61,13.639 3.914,13.159 3.005,12.536 C2.096,11.914 1.552,11.539 1.371,11.413 C1.042,11.192 0.731,10.889 0.438,10.503 C0.146,10.116 0,9.758 0,9.427 C0,9.017 0.11,8.675 0.331,8.402 C0.551,8.129 0.866,7.992 1.275,7.992 L13.01,7.992 C13.355,7.992 13.654,8.115 13.907,8.363 C14.159,8.609 14.286,8.906 14.286,9.253 C14.286,9.668 14.156,10.065 13.895,10.443 C13.635,10.822 13.31,11.145 12.922,11.413 L12.922,11.413 Z" id="ic-envelop"></path>
                        </g>
                    </g>
                </g>
            </g>
        </g>
    </g>
</svg>