<?xml version="1.0" encoding="UTF-8"?>
<svg width="49px" height="43px" viewBox="0 0 49 43" version="1.1" xmlns="http://www.w3.org/2000/svg" xmlns:xlink="http://www.w3.org/1999/xlink">
    <!-- Generator: sketchtool 50.2 (55047) - http://www.bohemiancoding.com/sketch -->
    <title>417A11F3-22CF-489F-9E68-3A709DB3FE2E</title>
    <desc>Created with sketchtool.</desc>
    <defs></defs>
    <g id="main" stroke="none" stroke-width="1" fill="none" fill-rule="evenodd">
        <g id="home-screen-1" transform="translate(-771.000000, -1953.000000)" fill="#055E7D">
            <g id="section-4" transform="translate(189.000000, 1795.000000)">
                <g id="items-info" transform="translate(561.000000, 14.000000)">
                    <g id="item-info-1" transform="translate(0.000000, 140.000000)">
                        <g id="Icon-1">
                            <path d="M51.8118125,16.5692656 L36.4143281,16.5692656 C35.5690781,16.5692656 34.8830781,15.888625 34.8830781,15.0495 C34.8830781,14.2096094 35.5690781,13.5289688 36.4143281,13.5289688 L51.8118125,13.5289688 C52.6570625,13.5289688 53.3430625,14.2096094 53.3430625,15.0495 C53.3430625,15.888625 52.6570625,16.5692656 51.8118125,16.5692656 Z M51.8118125,23.8664375 L36.4143281,23.8664375 C35.5690781,23.8664375 34.8830781,23.1857969 34.8830781,22.3459062 C34.8830781,21.5067812 35.5690781,20.8261406 36.4143281,20.8261406 L51.8118125,20.8261406 C52.6570625,20.8261406 53.3430625,21.5067812 53.3430625,22.3459062 C53.3430625,23.1857969 52.6570625,23.8664375 51.8118125,23.8664375 Z M51.8118125,31.4017187 L36.4143281,31.4017187 C35.5690781,31.4017187 34.8830781,30.7210781 34.8830781,29.8819531 C34.8830781,29.0420625 35.5690781,28.3606563 36.4143281,28.3606563 L51.8118125,28.3606563 C52.6570625,28.3606563 53.3430625,29.0420625 53.3430625,29.8819531 C53.3430625,30.7210781 52.6570625,31.4017187 51.8118125,31.4017187 Z M34.6472656,7.04182812 C34.6457344,7.04182812 34.6442031,7.0410625 34.6426719,7.0410625 C32.3902031,7.044125 30.8773281,8.97732812 30.8773281,10.7834375 C30.8773281,10.8270781 30.8681406,10.8668906 30.8643125,10.909 C30.8681406,10.9511094 30.8773281,10.9916875 30.8773281,11.0345625 L30.8773281,36.8698125 L48.2700313,36.8698125 C49.1160469,36.8698125 49.8012813,37.5496875 49.8012813,38.3895781 C49.8012813,38.4278594 49.7928594,38.4638437 49.7897969,38.5013594 C49.793625,38.545 49.8035781,38.5886406 49.8035781,38.6338125 L49.8035781,40.1022812 C49.8035781,42.3409687 51.7528594,43.8446562 53.57275,43.8446562 C55.5097813,43.8446562 57.3411563,42.0262969 57.3411563,40.1022812 C57.3411563,40.0846719 57.34575,40.0678281 57.3465156,40.0509844 L57.3465156,10.3003281 C57.3465156,10.2972656 57.3465156,10.2942031 57.3465156,10.2911406 C57.3465156,10.2888437 57.3465156,10.2857812 57.3465156,10.2827187 C57.3465156,9.096 57.6856875,7.98890625 58.2637344,7.04182812 L34.6472656,7.04182812 Z M24.0625,39.9093438 L24.0625,40.1030469 C24.0625,42.3417344 26.0117812,43.8454219 27.8316719,43.8454219 C27.8753125,43.8454219 27.9158906,43.855375 27.958,43.8584375 C28.0001094,43.855375 28.0406875,43.8454219 28.0843281,43.8454219 L47.8803281,43.8454219 C47.1621719,42.7720156 46.7410781,41.4857656 46.7410781,40.1022813 L46.7410781,39.9093438 L24.0625,39.9093438 Z M67.0186562,16.5692656 L64.4798437,16.5692656 C63.6338281,16.5692656 62.9485937,15.888625 62.9485937,15.0495 C62.9485937,14.2096094 63.6338281,13.5289687 64.4798437,13.5289687 L66.9375,13.5289687 L66.9375,10.2827188 C66.9375,8.28060938 65.2431719,7.04182812 63.672875,7.04182812 C61.6562187,7.04182812 60.4090156,8.72390625 60.4090156,10.2827188 C60.4090156,10.2857812 60.40825,10.2888437 60.40825,10.2911406 C60.40825,10.2942031 60.4090156,10.2972656 60.4090156,10.3003281 L60.4090156,40.1015156 C60.4090156,40.1390313 60.4005937,40.1750156 60.3975312,40.2125313 C60.3332187,43.769625 57.1910938,46.8665781 53.6018437,46.8841875 C53.5934219,46.8841875 53.5865312,46.8864844 53.578875,46.8864844 L28.0843281,46.8864844 C28.0406875,46.8864844 28.0001094,46.8772969 27.958,46.8734688 C27.9158906,46.8772969 27.8753125,46.8864844 27.8316719,46.8864844 C24.0647969,46.8864844 21,43.843125 21,40.1030469 L21,38.6713281 C21,38.6238594 21.0099531,38.5779219 21.0137813,38.5312188 C21.0099531,38.48375 21,38.4378125 21,38.3895781 C21,37.5496875 21.6852344,36.8698125 22.53125,36.8698125 L27.8148281,36.8698125 L27.8148281,11.0345625 C27.8148281,10.9916875 27.8240156,10.9511094 27.8270781,10.909 C27.8240156,10.8668906 27.8148281,10.8270781 27.8148281,10.7834375 C27.8148281,7.04335938 30.879625,4 34.6472656,4 C34.6495625,4 34.6518594,4.00076563 34.6541562,4.00076563 L63.1690937,4.00076563 C63.2265156,4.00076563 63.280875,4.01148438 63.3375312,4.01760937 C63.4493125,4.01225 63.5603281,4.00076563 63.672875,4.00076563 C67.1618281,4.00076563 70,6.81903125 70,10.2827188 L70,13.610125 C70,15.2416719 68.6624531,16.5692656 67.0186562,16.5692656 Z" id="ic-order"></path>
                        </g>
                    </g>
                </g>
            </g>
        </g>
    </g>
</svg>