<?xml version="1.0" encoding="UTF-8"?>
<svg width="15px" height="15px" viewBox="0 0 15 15" version="1.1" xmlns="http://www.w3.org/2000/svg" xmlns:xlink="http://www.w3.org/1999/xlink">
    <!-- Generator: sketchtool 50.2 (55047) - http://www.bohemiancoding.com/sketch -->
    <title>DF820F9F-C797-4B5B-80C8-798103EABA6E</title>
    <desc>Created with sketchtool.</desc>
    <defs></defs>
    <g id="main" stroke="none" stroke-width="1" fill="none" fill-rule="evenodd">
        <g id="home-screen-1" transform="translate(-663.000000, -3394.000000)" fill="#EE3643">
            <g id="section-7" transform="translate(0.000000, 3194.000000)">
                <g id="input-and-info" transform="translate(601.000000, 83.000000)">
                    <g id="info-contact" transform="translate(62.000000, 110.000000)">
                        <g id="Phone">
                            <path d="M14.993,18.494 C15.024,18.731 14.95,18.936 14.77,19.111 L12.658,21.148 C12.563,21.251 12.439,21.338 12.285,21.41 C12.132,21.482 11.981,21.528 11.833,21.549 C11.822,21.549 11.79,21.552 11.737,21.557 C11.684,21.562 11.616,21.564 11.531,21.564 C11.33,21.564 11.004,21.531 10.554,21.464 C10.104,21.397 9.554,21.233 8.903,20.97 C8.252,20.708 7.513,20.315 6.688,19.79 C5.862,19.266 4.983,18.546 4.052,17.63 C3.311,16.92 2.697,16.241 2.21,15.594 C1.723,14.946 1.331,14.347 1.035,13.796 C0.738,13.246 0.516,12.747 0.368,12.3 C0.219,11.852 0.119,11.466 0.066,11.142 C0.013,10.818 -0.008,10.564 0.002,10.379 C0.013,10.194 0.018,10.091 0.018,10.07 C0.039,9.926 0.087,9.78 0.161,9.63 C0.235,9.481 0.325,9.36 0.431,9.268 L2.543,7.216 C2.691,7.072 2.861,7 3.051,7 C3.189,7 3.311,7.039 3.416,7.116 C3.522,7.193 3.612,7.288 3.686,7.401 L5.386,10.533 C5.481,10.698 5.507,10.878 5.465,11.073 C5.423,11.269 5.333,11.433 5.195,11.567 L4.417,12.323 C4.396,12.343 4.377,12.377 4.361,12.423 C4.345,12.469 4.337,12.508 4.337,12.539 C4.38,12.755 4.475,13.002 4.623,13.279 C4.75,13.526 4.946,13.827 5.211,14.182 C5.475,14.537 5.851,14.946 6.338,15.408 C6.815,15.881 7.238,16.249 7.609,16.512 C7.979,16.774 8.289,16.967 8.538,17.09 C8.786,17.214 8.977,17.288 9.109,17.314 L9.308,17.352 C9.329,17.352 9.363,17.345 9.411,17.329 C9.459,17.314 9.493,17.296 9.514,17.275 L10.419,16.38 C10.61,16.216 10.832,16.134 11.086,16.134 C11.266,16.134 11.409,16.164 11.515,16.226 L11.531,16.226 L14.595,17.985 C14.818,18.119 14.95,18.288 14.993,18.494 L14.993,18.494 Z" id="ic-phone"></path>
                        </g>
                    </g>
                </g>
            </g>
        </g>
    </g>
</svg>