<?xml version="1.0" encoding="UTF-8"?>
<svg width="46px" height="46px" viewBox="0 0 46 46" version="1.1" xmlns="http://www.w3.org/2000/svg" xmlns:xlink="http://www.w3.org/1999/xlink">
    <!-- Generator: sketchtool 50.2 (55047) - http://www.bohemiancoding.com/sketch -->
    <title>F69E4A87-73E6-4988-A137-ABE944539161</title>
    <desc>Created with sketchtool.</desc>
    <defs></defs>
    <g id="main" stroke="none" stroke-width="1" fill="none" fill-rule="evenodd">
        <g id="home-screen-1" transform="translate(-775.000000, -2103.000000)" fill="#055E7D" stroke="#005D7E">
            <g id="section-4" transform="translate(189.000000, 1795.000000)">
                <g id="items-info" transform="translate(561.000000, 14.000000)">
                    <g id="item-info-1" transform="translate(0.000000, 292.000000)">
                        <g id="Icon-1">
                            <path d="M27.4266723,42.8547198 L34.3222553,42.8547198 L34.3222553,22.8704988 L27.4266723,22.8704988 L27.4266723,42.8547198 Z M35.7489277,41.4493178 C36.9202257,41.6273168 38.0748792,42.2598407 38.3245468,42.4029835 C40.2063277,43.4784134 42.2379091,44.623091 44.7155634,46.0057202 C44.8258927,46.0679966 44.9457332,46.0963463 45.0118357,46.0963463 C48.4420316,46.1028528 51.5369594,46.1005291 54.7365099,46.0982053 L59.9267439,46.0958816 C60.1935317,46.0958816 62.5508699,46.0289577 63.1191611,43.7075348 C63.6013763,41.7346739 61.7110355,41.1239933 61.6301907,41.0988969 C61.2801804,40.9901455 61.0709352,40.6383303 61.1489266,40.2869798 C61.226918,39.9356293 61.5593327,39.6962834 61.9312186,39.7422936 C62.1903974,39.7715728 64.5096911,39.9579373 64.9082082,37.7870932 C65.2520362,35.9215894 63.9062087,35.2091287 63.3108107,34.9893022 C63.0097829,34.8777624 62.8138532,34.5789286 62.84524,34.2652228 C62.8766268,33.951517 63.1120277,33.6945106 63.4301757,33.6429234 C65.295312,33.3413011 66.3310761,32.6478951 66.5973883,31.524596 C67.0016121,29.8198955 65.6714779,28.7402828 65.0808356,28.3554704 C64.8216568,28.1863016 64.7046696,27.8725958 64.7912211,27.5807332 C64.8787236,27.2884059 65.1497914,27.0853105 65.460806,27.078804 C66.2606936,27.062073 68.3735953,26.5931409 68.5538316,24.6477003 C68.6394319,23.7353973 68.4496845,23.0243309 67.9926738,22.5354146 C67.5394676,22.050681 66.9569097,21.921016 66.6839397,21.921016 L53.7173903,21.9293815 C53.1452947,21.9382117 52.6183771,21.7025838 52.2759757,21.2936044 C51.9055165,20.8520925 51.7623737,20.2516364 51.881263,19.6409558 C51.9516455,18.9958837 52.1014461,17.8628249 52.2602823,16.6647011 C52.5380079,14.5677522 52.882787,11.9581847 52.882787,11.3307731 C52.882787,10.1619286 52.6801995,8.95776306 52.4909277,7.91997782 C52.2835846,6.78552472 51.8593874,5.89645926 51.1931314,5.20119427 C50.4679063,4.44365287 49.650423,4.22336169 48.6936014,4.52916675 C47.6335839,4.86750425 47.1190307,5.46749563 47.0719505,6.41744325 C47.0210659,7.45801699 46.9882524,8.49952023 46.9559145,9.54102346 C46.9316611,10.3083246 46.9074077,11.0756257 46.8760209,11.8424621 C46.8612786,12.2142616 46.7599849,12.5800193 46.5916375,12.8714171 C45.9282349,14.0179537 45.2615033,15.161237 44.5938207,16.3049851 C43.4158649,18.3219972 42.1984378,20.4082569 41.0299932,22.4726734 C40.4336441,23.5248659 39.6694233,23.7716478 38.7311485,23.9849677 C38.7049928,23.9910095 38.6783616,23.9951922 38.6512548,23.9984455 C38.0881948,24.0616514 37.2050846,24.140194 36.4061481,24.2108359 C36.1769294,24.2312849 35.953893,24.2508043 35.7484521,24.2693943 L35.7484521,41.4493178 L35.7489277,41.4493178 Z M49.8915307,47.4952418 C48.3098266,47.4952418 46.7000646,47.4943123 45.0075557,47.4910591 C44.6803721,47.4896648 44.3165707,47.3897437 44.0069828,47.2163922 C41.5250485,45.831904 39.4901381,44.6849026 37.6045529,43.6066842 C37.2245825,43.3891815 36.4537038,43.0220296 35.7489277,42.8681975 L35.7489277,43.5523085 C35.7489277,43.9375857 35.4293531,44.2494325 35.0355915,44.2494325 L26.7133362,44.2494325 C26.3195746,44.2494325 26,43.9375857 26,43.5523085 L26,22.1738396 C26,21.7885624 26.3195746,21.4767156 26.7133362,21.4767156 L35.0355915,21.4767156 C35.4293531,21.4767156 35.7489277,21.7885624 35.7489277,22.1738396 L35.7489277,22.8700341 C35.917275,22.8551621 36.0956091,22.8393606 36.277272,22.8230944 C37.0452973,22.755241 37.8917896,22.6804164 38.4477162,22.6186047 C39.2780395,22.427128 39.5058315,22.2844499 39.7816549,21.7983222 C40.9548551,19.7260049 42.1751355,17.6360272 43.3549935,15.6152971 C44.020774,14.473408 44.6879811,13.331519 45.349957,12.1868414 C45.4055972,12.0897088 45.444593,11.9363415 45.4502996,11.7880864 C45.4816864,11.0249681 45.5059399,10.2623144 45.5292422,9.49966077 C45.5625312,8.44979205 45.5953447,7.39992332 45.6471804,6.3509841 C45.7223185,4.83450705 46.6468022,3.71724967 48.2508575,3.20509592 C49.7455345,2.72686886 51.1227489,3.08890859 52.2346022,4.2498524 C53.0834723,5.13473512 53.6417767,6.28777819 53.8952488,7.67644917 C54.0959341,8.77232808 54.3094594,10.0489945 54.3094594,11.3321674 C54.3094594,11.9976884 54.0464761,14.0370084 53.6750657,16.8450238 C53.5152784,18.0547663 53.3640511,19.1975849 53.2969975,19.8198843 C53.2941442,19.8431217 53.2903397,19.8658945 53.2860597,19.8882024 C53.2423084,20.0973396 53.276073,20.2874221 53.3787934,20.4105807 C53.4491759,20.4947003 53.5471408,20.5374572 53.6674568,20.5374572 L53.6712613,20.5374572 L53.8077462,20.5290917 L66.6839397,20.5281622 C67.3435379,20.5281622 68.3103462,20.8088708 69.0460336,21.5966209 C69.5539289,22.1399129 70.1279268,23.1326175 69.9747973,24.7755063 C69.7974143,26.6860908 68.412591,27.746184 67.0287189,28.2021031 C67.7301661,29.0047252 68.3697909,30.2284102 67.9874427,31.8415551 C67.6816592,33.1312344 66.7800023,34.0565503 65.2986409,34.6049545 C66.0918707,35.3685377 66.5945349,36.5071735 66.3130049,38.0352693 C66.0048437,39.7116201 64.9215238,40.5453804 63.8115727,40.9111381 C64.4364552,41.6189514 64.8463857,42.6469769 64.5073133,44.0333241 C63.6836478,47.3943912 60.3090921,47.4915238 59.9272195,47.4915238 L54.7379366,47.4938476 C53.1143835,47.4938476 51.5174616,47.4952418 49.8915307,47.4952418 Z" id="ic-thumb-positive"></path>
                        </g>
                    </g>
                </g>
            </g>
        </g>
    </g>
</svg>