<?xml version="1.0" encoding="UTF-8"?>
<svg width="178px" height="55px" viewBox="0 0 178 55" version="1.1" xmlns="http://www.w3.org/2000/svg" xmlns:xlink="http://www.w3.org/1999/xlink">
    <!-- Generator: sketchtool 50.2 (55047) - http://www.bohemiancoding.com/sketch -->
    <title>A6CB6A8F-B27E-4B16-952E-6628CF925FA9</title>
    <desc>Created with sketchtool.</desc>
    <defs>
        <polygon id="path-1" points="0 0.0543819048 30.9215133 0.0543819048 30.9215133 38.3423438 0 38.3423438"></polygon>
        <polygon id="path-3" points="0 54.9067619 177.83679 54.9067619 177.83679 0 0 0"></polygon>
    </defs>
    <g id="main" stroke="none" stroke-width="1" fill="none" fill-rule="evenodd">
        <g id="home-screen-1" transform="translate(-79.000000, -9.000000)">
            <g id="header-section">
                <g id="Menu-Bar">
                    <g id="logo-horizontal" transform="translate(79.000000, 9.000000)">
                        <path d="M35.60832,5.57348 L32.3953771,0.00852761905 L32.3953771,13.713061 L40.725101,28.1405562 C39.1566057,27.6515276 37.0556057,26.9949848 34.53032,26.2015181 C32.7862438,27.777661 31.0421676,29.353699 29.2980914,30.9298419 C28.4573771,31.7580895 27.4717771,32.5339562 26.6311676,33.3622038 L33.2500248,35.5209276 L36.02852,33.0358705 L45.2016819,35.894299 L45.2058724,35.9015276 L47.7086343,36.6755086 L48.5994248,36.9530229 L48.6000533,36.9511371 L54.8378914,38.8800133 C48.4280343,27.7778705 42.0181771,16.6757276 35.60832,5.57348" id="Fill-1" fill="#EE3643"></path>
                        <path d="M50.6924419,48.0544324 L34.885861,48.0544324 C36.1542133,46.8954514 37.422461,45.73668 38.6908133,44.577699 L37.2369276,37.6770324 L36.4697562,33.979461 L31.280899,38.7825848 L32.0307848,42.4341657 L25.8942514,48.0544324 L25.8524514,48.0544324 L18.3533848,54.906699 L56.1786133,54.906699 L62.5610229,54.906699 L50.6924419,48.0544324 Z" id="Fill-3" fill="#EE3643"></path>
                        <polygon id="Fill-5" fill="#EE3643" points="27.6959781 5.57348 23.2413971 13.249699 25.33014 23.3352324 30.9138448 13.7023752 30.9138448 4.19047619e-05"></polygon>
                        <g id="Group-9" transform="translate(0.000000, 15.202000)">
                            <mask id="mask-2" fill="white">
                                <use xlink:href="#path-1"></use>
                            </mask>
                            <g id="Clip-8"></g>
                            <path d="M29.5656848,20.0680962 L26.0412848,18.8540105 L24.1987324,10.0895248 L24.208161,10.0732867 L22.0801324,0.0543819048 L3.16956095,32.852401 L-1.04761905e-05,38.3423438 L11.8662657,31.4913343 L19.6532181,17.9777819 C19.9660371,19.4689629 20.3550181,21.3294295 20.8048657,23.4941248 C23.0312657,24.2484105 25.2576657,25.0026962 27.4840657,25.7569819 C28.6170657,26.0871914 29.7885133,26.4802581 30.9215133,26.8103629 L29.5656848,20.0680962 Z" id="Fill-7" fill="#EE3643" mask="url(#mask-2)"></path>
                        </g>
                        <polygon id="Fill-10" fill="#EE3643" points="23.6147162 48.0544324 12.471821 48.0544324 0.603344762 54.906699 7.12571619 54.906699 16.1229829 54.906699"></polygon>
                        <path d="M63.3742686,53.6655324 L60.1347162,48.05438 C58.7478781,45.6522943 57.3609352,43.2501038 55.9740971,40.8479133 L46.3817829,37.9382562 L51.5057924,46.8132657 L63.3742686,53.6655324 Z" id="Fill-12" fill="#EE3643"></path>
                        <polygon id="Fill-14" fill="#FEF7E6" points="83.4820486 29.0865876 80.8239248 29.0865876 80.8239248 19.7054733 77.7751438 26.8391305 75.7425533 26.8391305 72.6937724 19.7054733 72.6937724 29.0865876 70.0356486 29.0865876 70.0356486 15.014759 73.1237152 15.014759 76.7590581 23.262559 80.3938771 15.014759 83.4820486 15.014759"></polygon>
                        <path d="M96.2240819,23.2625905 L99.2338914,23.2625905 L97.7484724,18.1028571 L96.2240819,23.2625905 Z M94.5043105,29.086619 L91.5925581,29.086619 L96.126339,15.0147905 L99.4098914,15.0147905 L103.944091,29.086619 L100.914796,29.086619 L99.9963486,25.9206095 L95.4425581,25.9206095 L94.5043105,29.086619 Z" id="Fill-16" fill="#FEF7E6"></path>
                        <polygon id="Fill-18" fill="#FEF7E6" points="122.901324 15.0147381 122.901324 29.0865667 119.871924 29.0865667 114.69281 19.4906905 114.69281 29.0865667 112.054171 29.0865667 112.054171 15.0147381 115.083571 15.0147381 120.262686 24.6111381 120.262686 15.0147381"></polygon>
                        <polygon id="Fill-20" fill="#FEF7E6" points="134.040668 29.0865876 130.972401 29.0865876 135.193887 21.8746733 131.089525 15.014759 134.373077 15.014759 136.99181 19.451321 139.591477 15.014759 142.659744 15.014759 138.574972 22.0506733 142.776972 29.0865876 139.49342 29.0865876 136.757563 24.435159"></polygon>
                        <path d="M152.900576,25.7641895 C152.900576,26.2720752 153.174529,26.5460276 153.682414,26.5460276 L156.301148,26.5460276 C156.809452,26.5460276 157.08309,26.2720752 157.08309,25.7641895 L157.08309,23.9268752 C157.08309,23.3407324 156.692224,23.1454562 156.145157,23.1454562 L153.467548,23.1454562 L153.467548,20.6437419 L156.145157,20.6437419 C156.692224,20.6437419 156.926995,20.4873324 156.926995,19.8619038 L156.926995,18.3375133 C156.926995,17.8293133 156.652938,17.5556752 156.145157,17.5556752 L153.838824,17.5556752 C153.330519,17.5556752 153.056986,17.8293133 153.056986,18.3375133 L153.056986,19.2364752 L150.242871,19.2364752 L150.242871,17.7510562 C150.242871,16.1876943 151.493624,14.9368371 153.056986,14.9368371 L156.926995,14.9368371 C158.490252,14.9368371 159.74111,16.1876943 159.74111,17.7510562 L159.74111,19.7836467 C159.74111,20.6239419 159.4087,21.3668086 158.509738,21.8944943 C159.486957,22.3635133 159.897519,23.1648371 159.897519,24.0051324 L159.897519,26.3503324 C159.897519,27.9140086 158.646767,29.164761 157.08309,29.164761 L152.900576,29.164761 C151.337214,29.164761 150.086462,27.9140086 150.086462,26.3503324 L150.086462,24.8652276 L152.900576,24.8652276 L152.900576,25.7641895 Z" id="Fill-22" fill="#EE3643"></path>
                        <path d="M174.357941,21.4645514 C174.787884,21.4645514 175.022236,21.2298848 175.022236,20.7998371 L175.022236,18.3375133 C175.022236,17.9074657 174.787884,17.6729038 174.357941,17.6729038 L170.683731,17.6729038 L170.683731,21.4645514 L174.357941,21.4645514 Z M175.061627,15.01478 C176.703141,15.01478 177.83677,16.1484086 177.83677,17.7903419 L177.83677,21.3470086 C177.83677,22.9889419 176.703141,24.1222562 175.061627,24.1222562 L170.683731,24.1222562 L170.683731,29.0866086 L167.869198,29.0866086 L167.869198,15.01478 L175.061627,15.01478 Z" id="Fill-24" fill="#FEF7E6"></path>
                        <path d="M74.2457676,37.5822333 C74.2457676,37.4046619 74.2101486,37.2587286 74.13912,37.1448524 C74.0679867,37.0311857 73.97192,36.9422429 73.8510248,36.8782333 C73.7300248,36.8142238 73.5932057,36.7715857 73.4403581,36.750319 C73.2874057,36.7288429 73.1292152,36.7182619 72.9656819,36.7182619 L72.1656152,36.7182619 L72.1656152,38.4997381 L72.9337295,38.4997381 C73.1043867,38.4997381 73.26792,38.4854905 73.4244343,38.4571 C73.580739,38.4287095 73.7212248,38.3788429 73.8457867,38.3076048 C73.970139,38.2365762 74.0679867,38.1422905 74.13912,38.0250619 C74.2101486,37.9076238 74.2457676,37.760119 74.2457676,37.5822333 M76.0698819,37.5716524 C76.0698819,38.0125952 75.9880629,38.3841857 75.8245295,38.6864238 C75.6608914,38.9886619 75.4404724,39.2322333 75.1631676,39.4170333 C74.8858629,39.6020429 74.5658152,39.7369762 74.2031295,39.8224619 C73.840339,39.9077381 73.4634057,39.9503762 73.0723295,39.9503762 L72.1656152,39.9503762 L72.1656152,42.7986429 L70.341501,42.7986429 L70.341501,35.2461476 L73.1150724,35.2461476 C73.5274152,35.2461476 73.9132533,35.2872143 74.2723771,35.368719 C74.631501,35.4506429 74.9444248,35.582119 75.2111486,35.7635667 C75.4778724,35.9448048 75.687501,36.1832429 75.8405581,36.4782524 C75.9934057,36.7732619 76.0698819,37.1379381 76.0698819,37.5716524" id="Fill-26" fill="#EE3643"></path>
                        <mask id="mask-4" fill="white">
                            <use xlink:href="#path-3"></use>
                        </mask>
                        <g id="Clip-29"></g>
                        <polygon id="Fill-28" fill="#EE3643" mask="url(#mask-4)" points="77.3926476 42.7986952 79.2274476 42.7986952 79.2274476 35.2462 77.3926476 35.2462"></polygon>
                        <path d="M86.4172257,42.6653333 C85.926521,42.8893143 85.361121,43.0013048 84.7211305,43.0013048 C84.137921,43.0013048 83.5991305,42.9052381 83.1049686,42.7133143 C82.6105971,42.5212857 82.1822257,42.249219 81.81954,41.897219 C81.4568543,41.545219 81.172321,41.1238667 80.9661495,40.6331619 C80.7598733,40.1424571 80.6568924,39.6020952 80.6568924,39.0116571 C80.6568924,38.4072857 80.7616543,37.8595905 80.9714924,37.3688857 C81.1812257,36.8782857 81.4709971,36.4604952 81.8409114,36.1155143 C82.2106162,35.7706381 82.6444352,35.5058 83.1422638,35.3207905 C83.6399876,35.1358857 84.1769971,35.0434857 84.7530829,35.0434857 C85.2864257,35.0434857 85.810759,35.1377714 86.3265019,35.3260286 C86.84214,35.5146 87.2599305,35.7901238 87.5799781,36.1529143 L86.3425305,37.3901524 C86.1718733,37.1555905 85.9478924,36.9813714 85.6704829,36.8674952 C85.3931781,36.7538286 85.1086448,36.6968381 84.8170924,36.6968381 C84.4970448,36.6968381 84.2037114,36.7555048 83.9369876,36.8728381 C83.6703686,36.9901714 83.44094,37.1521333 83.2490162,37.3583048 C83.0569876,37.5646857 82.9077019,37.8081524 82.8009495,38.0889143 C82.6943019,38.3699905 82.6409781,38.6775714 82.6409781,39.0116571 C82.6409781,39.3530762 82.6943019,39.666 82.8009495,39.9504286 C82.9077019,40.2350667 83.0551019,40.4784286 83.2436733,40.6811429 C83.4319305,40.8837524 83.6579019,41.0421524 83.9210638,41.155819 C84.1840162,41.2696952 84.4721114,41.326581 84.7850352,41.326581 C85.147721,41.326581 85.4641019,41.2555524 85.7344924,41.113181 C86.0046733,40.9709143 86.2215305,40.786219 86.3851686,40.5584667 L87.6546733,41.7532762 C87.3202733,42.1372286 86.9079305,42.4412476 86.4172257,42.6653333" id="Fill-30" fill="#EE3643" mask="url(#mask-4)"></path>
                        <polygon id="Fill-31" fill="#EE3643" mask="url(#mask-4)" points="93.2656267 42.7986324 90.4601029 39.321061 90.4388362 39.321061 90.4388362 42.7986324 88.65736 42.7986324 88.65736 35.2461371 90.4388362 35.2461371 90.4388362 38.31828 90.4707886 38.31828 93.16956 35.2461371 95.4525314 35.2461371 92.198941 38.7237086 95.64456 42.7986324"></polygon>
                        <polygon id="Fill-32" fill="#EE3643" mask="url(#mask-4)" points="98.8340571 40.6971714 101.543619 40.6971714 101.543619 39.3104381 98.8340571 39.3104381"></polygon>
                        <path d="M109.725367,37.5822333 C109.725367,37.4046619 109.689748,37.2587286 109.618719,37.1448524 C109.547586,37.0311857 109.451519,36.9422429 109.330729,36.8782333 C109.209729,36.8142238 109.072805,36.7715857 108.920062,36.750319 C108.76711,36.7288429 108.608814,36.7182619 108.445386,36.7182619 L107.645319,36.7182619 L107.645319,38.4997381 L108.413329,38.4997381 C108.583881,38.4997381 108.747519,38.4854905 108.903929,38.4571 C109.060338,38.4287095 109.200824,38.3788429 109.325386,38.3076048 C109.449738,38.2365762 109.547586,38.1422905 109.618719,38.0250619 C109.689748,37.9076238 109.725367,37.760119 109.725367,37.5822333 M111.549481,37.5716524 C111.549481,38.0125952 111.467767,38.3841857 111.304129,38.6864238 C111.14049,38.9886619 110.920176,39.2322333 110.642871,39.4170333 C110.365357,39.6020429 110.045414,39.7369762 109.682729,39.8224619 C109.320043,39.9077381 108.943005,39.9503762 108.552033,39.9503762 L107.645319,39.9503762 L107.645319,42.7986429 L105.8211,42.7986429 L105.8211,35.2461476 L108.594671,35.2461476 C109.007119,35.2461476 109.392852,35.2872143 109.752081,35.368719 C110.111205,35.4506429 110.424129,35.582119 110.690852,35.7635667 C110.957471,35.9448048 111.167205,36.1832429 111.320157,36.4782524 C111.47311,36.7732619 111.549481,37.1379381 111.549481,37.5716524" id="Fill-33" fill="#EE3643" mask="url(#mask-4)"></path>
                        <path d="M115.325729,37.2622171 L114.36569,39.854341 L116.2645,39.854341 L115.325729,37.2622171 Z M117.352557,42.7986743 L116.76589,41.3157695 L113.843033,41.3157695 L113.288214,42.7986743 L111.304129,42.7986743 L114.472338,35.246179 L116.243233,35.246179 L119.379281,42.7986743 L117.352557,42.7986743 Z" id="Fill-34" fill="#EE3643" mask="url(#mask-4)"></path>
                        <path d="M125.44907,42.6653333 C124.958366,42.8893143 124.39307,43.0013048 123.75308,43.0013048 C123.169661,43.0013048 122.63108,42.9052381 122.136918,42.7133143 C121.642547,42.5212857 121.21407,42.249219 120.851385,41.897219 C120.488699,41.545219 120.20427,41.1238667 119.998099,40.6331619 C119.791718,40.1424571 119.688737,39.6020952 119.688737,39.0116571 C119.688737,38.4072857 119.793604,37.8595905 120.003337,37.3688857 C120.21307,36.8782857 120.502947,36.4604952 120.872756,36.1155143 C121.242461,35.7706381 121.67628,35.5058 122.174109,35.3207905 C122.671832,35.1358857 123.208947,35.0434857 123.784928,35.0434857 C124.318375,35.0434857 124.842709,35.1377714 125.358451,35.3260286 C125.873985,35.5146 126.291775,35.7901238 126.611823,36.1529143 L125.37448,37.3901524 C125.203718,37.1555905 124.979737,36.9813714 124.702328,36.8674952 C124.425023,36.7538286 124.14049,36.6968381 123.849042,36.6968381 C123.528994,36.6968381 123.235661,36.7555048 122.968832,36.8728381 C122.702213,36.9901714 122.47289,37.1521333 122.280861,37.3583048 C122.088937,37.5646857 121.939442,37.8081524 121.832794,38.0889143 C121.726147,38.3699905 121.672823,38.6775714 121.672823,39.0116571 C121.672823,39.3530762 121.726147,39.666 121.832794,39.9504286 C121.939442,40.2350667 122.086947,40.4784286 122.275518,40.6811429 C122.463985,40.8837524 122.689747,41.0421524 122.952909,41.155819 C123.21607,41.2696952 123.503956,41.326581 123.816985,41.326581 C124.17967,41.326581 124.495947,41.2555524 124.766337,41.113181 C125.036518,40.9709143 125.253375,40.786219 125.417118,40.5584667 L126.686518,41.7532762 C126.352118,42.1372286 125.93988,42.4412476 125.44907,42.6653333" id="Fill-35" fill="#EE3643" mask="url(#mask-4)"></path>
                        <polygon id="Fill-36" fill="#EE3643" mask="url(#mask-4)" points="132.297471 42.7986324 129.492052 39.321061 129.470786 39.321061 129.470786 42.7986324 127.68931 42.7986324 127.68931 35.2461371 129.470786 35.2461371 129.470786 38.31828 129.502633 38.31828 132.20151 35.2461371 134.484271 35.2461371 131.230681 38.7237086 134.6763 42.7986324"></polygon>
                        <path d="M141.85556,37.0168857 C141.85556,36.8248571 141.791655,36.6613238 141.663531,36.5260762 C141.535512,36.3911429 141.361189,36.3234667 141.140874,36.3234667 C140.934598,36.3234667 140.76216,36.3893619 140.623455,36.5209429 C140.484855,36.6525238 140.415503,36.8178381 140.415503,37.0168857 C140.415503,37.1946667 140.463484,37.3653238 140.55955,37.5289619 C140.655512,37.6926 140.795893,37.8489048 140.980798,37.9982952 C141.222589,37.8987714 141.42897,37.7672952 141.599627,37.6036571 C141.770389,37.440019 141.85556,37.2446381 141.85556,37.0168857 Z M140.51157,39.6090095 C140.29817,39.6943905 140.111589,39.8135048 139.951512,39.9663524 C139.791541,40.1194095 139.711398,40.3381524 139.711398,40.6224762 C139.711398,40.7718667 139.74157,40.9051238 139.802122,41.0224571 C139.86257,41.1397905 139.940827,41.2395238 140.036893,41.3212381 C140.132855,41.4029524 140.241179,41.4652857 140.362179,41.5079238 C140.48297,41.5505619 140.607531,41.5718286 140.73555,41.5718286 C140.970217,41.5718286 141.17995,41.5221714 141.364855,41.4225429 C141.549655,41.323019 141.709627,41.1808571 141.844874,40.9957429 L140.51157,39.6090095 Z M143.594503,42.7985905 L142.879608,42.0625333 C142.637922,42.3185714 142.341027,42.5302952 141.988922,42.6972857 C141.636922,42.8642762 141.19776,42.9478762 140.671541,42.9478762 C140.330122,42.9478762 139.995827,42.9033524 139.66876,42.814619 C139.341589,42.725781 139.051712,42.5870762 138.799341,42.3986095 C138.546865,42.2102476 138.34415,41.975581 138.191303,41.6945048 C138.03835,41.4137429 137.961979,41.0811238 137.961979,40.6971714 C137.961979,40.4341143 138.004617,40.1923238 138.089998,39.9716952 C138.175379,39.7514857 138.290931,39.5556857 138.436655,39.3850286 C138.582379,39.2143714 138.75136,39.0650857 138.943389,38.9370667 C139.135417,38.8089429 139.334465,38.6988381 139.540741,38.6063333 C139.306074,38.3787905 139.117503,38.129981 138.975341,37.8595905 C138.833074,37.5895143 138.76215,37.2907333 138.76215,36.9635619 C138.76215,36.6221429 138.833074,36.3306952 138.975341,36.0889048 C139.117503,35.8471143 139.300731,35.6480667 139.524712,35.4914476 C139.748798,35.3351429 140.00117,35.2212667 140.282141,35.1501333 C140.563008,35.0791048 140.842093,35.0434857 141.119608,35.0434857 C141.403827,35.0434857 141.684903,35.080781 141.962312,35.1554762 C142.239617,35.2300667 142.486541,35.3458286 142.703712,35.5021333 C142.920465,35.6585429 143.094684,35.8579048 143.22637,36.0994857 C143.357846,36.341381 143.423741,36.6293714 143.423741,36.9635619 C143.423741,37.2054571 143.38456,37.4240952 143.306408,37.619581 C143.228046,37.8152762 143.119617,37.9929524 142.981017,38.1530286 C142.842417,38.313 142.680455,38.4570476 142.495655,38.5850667 C142.310646,38.712981 142.11516,38.830419 141.908989,38.9370667 L142.858341,39.9077905 L143.61577,38.7450381 L145.557112,38.7450381 L143.925027,40.9318381 L145.80257,42.7985905 L143.594503,42.7985905 Z" id="Fill-37" fill="#EE3643" mask="url(#mask-4)"></path>
                        <path d="M153.610893,37.5822333 C153.610893,37.4046619 153.575274,37.2587286 153.504246,37.1448524 C153.433112,37.0311857 153.337046,36.9422429 153.216255,36.8782333 C153.09515,36.8142238 152.958331,36.7715857 152.805589,36.750319 C152.652636,36.7288429 152.494341,36.7182619 152.330808,36.7182619 L151.530846,36.7182619 L151.530846,38.4997381 L152.298855,38.4997381 C152.469408,38.4997381 152.632941,38.4854905 152.789455,38.4571 C152.945865,38.4287095 153.08635,38.3788429 153.210912,38.3076048 C153.335265,38.2365762 153.433112,38.1422905 153.504246,38.0250619 C153.575274,37.9076238 153.610893,37.760119 153.610893,37.5822333 M155.435008,37.5716524 C155.435008,38.0125952 155.353189,38.3841857 155.189655,38.6864238 C155.026017,38.9886619 154.805703,39.2322333 154.528293,39.4170333 C154.250884,39.6020429 153.930941,39.7369762 153.568255,39.8224619 C153.20557,39.9077381 152.828531,39.9503762 152.43756,39.9503762 L151.530846,39.9503762 L151.530846,42.7986429 L149.706627,42.7986429 L149.706627,35.2461476 L152.480198,35.2461476 C152.892541,35.2461476 153.278379,35.2872143 153.637608,35.368719 C153.996731,35.4506429 154.309655,35.582119 154.576379,35.7635667 C154.842998,35.9448048 155.052731,36.1832429 155.205684,36.4782524 C155.358636,36.7732619 155.435008,37.1379381 155.435008,37.5716524" id="Fill-38" fill="#EE3643" mask="url(#mask-4)"></path>
                        <path d="M162.678214,38.99038 C162.678214,38.6633133 162.624786,38.3575133 162.518243,38.0728752 C162.41149,37.7885514 162.263776,37.54498 162.075414,37.3423705 C161.886948,37.1395514 161.659405,36.9796848 161.392681,36.8623514 C161.126062,36.7448086 160.832729,36.6861419 160.512681,36.6861419 C160.192633,36.6861419 159.900976,36.7448086 159.637919,36.8623514 C159.374757,36.9796848 159.147319,37.1395514 158.955186,37.3423705 C158.763262,37.54498 158.615548,37.7885514 158.512567,38.0728752 C158.409376,38.3575133 158.357938,38.6633133 158.357938,38.99038 C158.357938,39.3316943 158.411262,39.646399 158.51791,39.9344943 C158.624557,40.2224848 158.772062,40.4696181 158.960633,40.6757895 C159.148995,40.8821705 159.374757,41.0439229 159.637919,41.1612562 C159.900976,41.2785895 160.192633,41.3371514 160.512681,41.3371514 C160.832729,41.3371514 161.124176,41.2785895 161.387443,41.1612562 C161.650395,41.0439229 161.878043,40.8821705 162.070176,40.6757895 C162.2621,40.4696181 162.41149,40.2224848 162.518243,39.9344943 C162.624786,39.646399 162.678214,39.3316943 162.678214,38.99038 M164.630348,38.99038 C164.630348,39.5877324 164.527052,40.1336467 164.320986,40.6278086 C164.114605,41.12218 163.828395,41.5452086 163.462148,41.8972086 C163.0959,42.2492086 162.6603,42.5212752 162.155452,42.7133038 C161.650395,42.9052276 161.10291,43.0012943 160.512681,43.0012943 C159.922243,43.0012943 159.376538,42.9052276 158.875252,42.7133038 C158.373862,42.5212752 157.939938,42.2492086 157.573795,41.8972086 C157.207443,41.5452086 156.921338,41.12218 156.715062,40.6278086 C156.508681,40.1336467 156.4057,39.5877324 156.4057,38.99038 C156.4057,38.3860086 156.508681,37.840199 156.715062,37.3528467 C156.921338,36.8659133 157.207443,36.45158 157.573795,36.1102657 C157.939938,35.7688467 158.373862,35.5057895 158.875252,35.32078 C159.376538,35.1358752 159.922243,35.0434752 160.512681,35.0434752 C161.10291,35.0434752 161.650395,35.1358752 162.155452,35.32078 C162.6603,35.5057895 163.0959,35.7688467 163.462148,36.1102657 C163.828395,36.45158 164.114605,36.8659133 164.320986,37.3528467 C164.527052,37.840199 164.630348,38.3860086 164.630348,38.99038" id="Fill-39" fill="#EE3643" mask="url(#mask-4)"></path>
                        <path d="M170.049409,37.2089143 C169.892894,37.0099714 169.688399,36.8515714 169.436132,36.7342381 C169.183447,36.6169048 168.939875,36.5582381 168.705313,36.5582381 C168.584313,36.5582381 168.461532,36.5689238 168.337285,36.5902952 C168.212723,36.6115619 168.100628,36.6525238 168.001209,36.7128667 C167.90158,36.7733143 167.818085,36.8515714 167.750618,36.9475333 C167.682837,37.0436 167.649209,37.1662762 167.649209,37.3156667 C167.649209,37.443581 167.675923,37.5502286 167.729351,37.6356095 C167.782466,37.7209905 167.860723,37.7956857 167.963913,37.8595905 C168.066894,37.9236 168.18957,37.9822667 168.331837,38.0356952 C168.474104,38.0889143 168.634075,38.1441238 168.811856,38.2010095 C169.067999,38.2862857 169.334723,38.3806762 169.612028,38.4836571 C169.889437,38.5868476 170.141704,38.7236667 170.369456,38.8943238 C170.596999,39.0650857 170.785361,39.2767048 170.934751,39.5290762 C171.084037,39.7815524 171.158837,40.0963619 171.158837,40.4730857 C171.158837,40.9070095 171.078694,41.2821619 170.918723,41.5985429 C170.758751,41.9151333 170.54357,42.1764095 170.27339,42.382581 C170.003104,42.5888571 169.693637,42.7417048 169.345304,42.8413333 C168.996761,42.9408571 168.637532,42.990619 168.267932,42.990619 C167.727361,42.990619 167.204704,42.8963333 166.699751,42.7079714 C166.194799,42.5195048 165.775228,42.2511048 165.441037,41.9025619 L166.635847,40.6864857 C166.820647,40.9141333 167.064218,41.104381 167.366561,41.2572286 C167.668694,41.4102857 167.969256,41.4865524 168.267932,41.4865524 C168.402866,41.4865524 168.534551,41.4723048 168.662675,41.4438095 C168.79059,41.4155238 168.902685,41.369219 168.998647,41.3053143 C169.094713,41.2410952 169.170875,41.155819 169.22797,41.0491714 C169.284751,40.9425238 169.313351,40.8145048 169.313351,40.6651143 C169.313351,40.5229524 169.277732,40.4020571 169.206704,40.3024286 C169.135466,40.2029048 169.034161,40.1122857 168.902685,40.0304667 C168.770999,39.9487524 168.607361,39.8740571 168.41198,39.806381 C168.21618,39.7388095 167.994085,39.666 167.745275,39.5877429 C167.503275,39.5094857 167.266828,39.416981 167.035828,39.3104381 C166.804618,39.2036857 166.598447,39.0668667 166.417104,38.8996667 C166.235761,38.7326762 166.089932,38.5299619 165.979723,38.2916286 C165.869409,38.0535048 165.814409,37.7636286 165.814409,37.4222095 C165.814409,37.0026381 165.89979,36.6435143 166.070447,36.3448381 C166.241104,36.0460571 166.465085,35.8008095 166.742494,35.6088857 C167.019904,35.4168571 167.332618,35.2764762 167.681266,35.1874286 C168.029599,35.0985905 168.381599,35.0541714 168.737266,35.0541714 C169.164066,35.0541714 169.599456,35.1324286 170.044066,35.2888381 C170.488256,35.4453524 170.877656,35.6764571 171.212161,35.9821524 L170.049409,37.2089143 Z" id="Fill-40" fill="#EE3643" mask="url(#mask-4)"></path>
                        <polygon id="Fill-41" fill="#EE3643" mask="url(#mask-4)" points="175.681681 36.8035695 175.681681 42.7986743 173.857567 42.7986743 173.857567 36.8035695 171.724195 36.8035695 171.724195 35.246179 177.815157 35.246179 177.815157 36.8035695"></polygon>
                    </g>
                </g>
            </g>
        </g>
    </g>
</svg>