<?xml version="1.0" encoding="UTF-8"?>
<svg width="90px" height="98px" viewBox="0 0 90 98" version="1.1" xmlns="http://www.w3.org/2000/svg" xmlns:xlink="http://www.w3.org/1999/xlink">
    <!-- Generator: sketchtool 50.2 (55047) - http://www.bohemiancoding.com/sketch -->
    <title>68CFD01F-7C12-4E05-9353-A3172295BDF0</title>
    <desc>Created with sketchtool.</desc>
    <defs>
        <polygon id="path-1" points="0.126386777 0.0123471074 11.0211471 0.0123471074 11.0211471 33.1479521 0.126386777 33.1479521"></polygon>
    </defs>
    <g id="main" stroke="none" stroke-width="1" fill="none" fill-rule="evenodd">
        <g id="home-screen-1" transform="translate(-595.000000, -3547.000000)">
            <g id="footer" transform="translate(0.000000, 3517.000000)">
                <g id="BG">
                    <g id="logo-vertical" transform="translate(595.000000, 30.000000)">
                        <path d="M50.5631901,8.0629438 L46.0010083,0.160795041 L46.0010083,19.6211752 L57.8290909,40.1078529 C55.6017025,39.4134397 52.618314,38.4811587 49.032595,37.3544479 C46.5560331,39.5925471 44.0794711,41.8306463 41.6029091,44.0685967 C40.4091074,45.2446959 39.0095702,46.3464149 37.8159174,47.522514 L47.214595,50.5878694 L51.1598678,47.0589769 L64.1857686,51.1180512 L64.191719,51.1284645 L67.7456033,52.227357 L69.0105124,52.6214231 L69.0112562,52.6187455 L77.8690413,55.3577207 C68.7669917,39.5928446 59.6652397,23.8278198 50.5631901,8.0629438" id="Fill-1" fill="#EE3643"></path>
                        <path d="M71.9824909,68.3852579 L49.5373835,68.3852579 C51.3384248,66.7396711 53.1393174,65.0939355 54.9402099,63.4483488 L52.8758628,53.6495058 L51.7863421,48.3990099 L44.4183917,55.2195223 L45.4832182,60.4044149 L36.7694331,68.3852579 L36.7100777,68.3852579 L26.0616645,78.1153736 L79.7726231,78.1153736 L88.8356975,78.1153736 L71.9824909,68.3852579 Z" id="Fill-3" fill="#EE3643"></path>
                        <g id="Group-7" transform="translate(32.876033, 0.136413)">
                            <mask id="mask-2" fill="white">
                                <use xlink:href="#path-1"></use>
                            </mask>
                            <g id="Clip-6"></g>
                            <polygon id="Fill-5" fill="#EE3643" mask="url(#mask-2)" points="6.45182479 7.92653058 0.126386777 18.8266463 3.09237025 33.1479521 11.0211471 19.4694397 11.0211471 0.0123322314"></polygon>
                        </g>
                        <path d="M41.9828876,50.2317818 L36.9781438,48.5077983 L34.3618959,36.0623603 L34.3751355,36.0391537 L31.3535157,21.8126083 L4.50063967,68.3853025 L4.46280992e-05,76.1807901 L16.8499785,66.4526083 L27.9073339,47.2634182 C28.3515322,49.3810215 28.9038793,52.0228562 29.5425074,55.0965421 C32.7041107,56.1676165 35.8655653,57.2388397 39.0270198,58.309914 C40.635714,58.7788066 42.2993008,59.3369554 43.9081438,59.8056992 L41.9828876,50.2317818 Z" id="Fill-8" fill="#EE3643"></path>
                        <polygon id="Fill-10" fill="#EE3643" points="33.5326017 68.3852579 17.7098579 68.3852579 0.85665124 78.1153736 10.1183207 78.1153736 22.8944529 78.1153736"></polygon>
                        <path d="M89.9904793,76.3529504 L85.3903636,68.3851983 C83.4210744,64.9742727 81.4517851,61.5633471 79.4821983,58.1522727 L65.861405,54.0204545 L73.1374215,66.6228347 L89.9904793,76.3529504 Z" id="Fill-12" fill="#EE3643"></path>
                        <polygon id="Fill-14" fill="#FEF7E6" points="15.6305157 97.373038 13.841524 97.373038 13.841524 91.0593521 11.7896727 95.860443 10.421524 95.860443 8.36952397 91.0593521 8.36952397 97.373038 6.58068099 97.373038 6.58068099 87.9022116 8.65901157 87.9022116 11.1056727 93.4532033 13.5520364 87.9022116 15.6305157 87.9022116"></polygon>
                        <path d="M24.2063107,93.4532628 L26.2319802,93.4532628 L25.232162,89.9806017 L24.2063107,93.4532628 Z M23.0488066,97.3730975 L21.089038,97.3730975 L24.1405587,87.9022711 L26.3503934,87.9022711 L29.4022116,97.3730975 L27.3633025,97.3730975 L26.7450545,95.2422545 L23.6802942,95.2422545 L23.0488066,97.3730975 Z" id="Fill-16" fill="#FEF7E6"></path>
                        <polygon id="Fill-18" fill="#FEF7E6" points="42.1608496 87.9022116 42.1608496 97.373038 40.1220893 97.373038 36.6363372 90.9146083 36.6363372 97.373038 34.8604364 97.373038 34.8604364 87.9022116 36.8993455 87.9022116 40.3849488 94.3607901 40.3849488 87.9022116"></polygon>
                        <polygon id="Fill-20" fill="#FEF7E6" points="49.6579835 97.373038 47.5930413 97.373038 50.4342149 92.519286 47.6717355 87.9022116 49.881719 87.9022116 51.6442314 90.8881289 53.3938017 87.9022116 55.4588926 87.9022116 52.7098017 92.6376992 55.5377355 97.373038 53.3279008 97.373038 51.4865455 94.2423769"></polygon>
                        <path d="M62.351286,95.1369917 C62.351286,95.478843 62.5356,95.663157 62.8774512,95.663157 L64.6401124,95.663157 C64.9821124,95.663157 65.1662777,95.478843 65.1662777,95.1369917 L65.1662777,93.9003471 C65.1662777,93.5058347 64.9032694,93.3743306 64.5350876,93.3743306 L62.7328562,93.3743306 L62.7328562,91.6908099 L64.5350876,91.6908099 C64.9032694,91.6908099 65.0612529,91.5854876 65.0612529,91.1646446 L65.0612529,90.1384959 C65.0612529,89.7966446 64.8769388,89.6123306 64.5350876,89.6123306 L62.9827736,89.6123306 C62.6406248,89.6123306 62.4566083,89.7966446 62.4566083,90.1384959 L62.4566083,90.7436529 L60.5627405,90.7436529 L60.5627405,89.7438347 C60.5627405,88.6916529 61.4044264,87.8499669 62.4566083,87.8499669 L65.0612529,87.8499669 C66.1134347,87.8499669 66.9551207,88.6916529 66.9551207,89.7438347 L66.9551207,91.1118347 C66.9551207,91.6774215 66.7315339,92.177405 66.1265256,92.5326446 C66.784195,92.8481653 67.060443,93.3875702 67.060443,93.9530083 L67.060443,95.5313554 C67.060443,96.5838347 66.2186083,97.4256694 65.1662777,97.4256694 L62.351286,97.4256694 C61.2992529,97.4256694 60.4574182,96.5838347 60.4574182,95.5313554 L60.4574182,94.5319835 L62.351286,94.5319835 L62.351286,95.1369917 Z" id="Fill-22" fill="#EE3643"></path>
                        <path d="M76.792805,92.2431273 C77.0821438,92.2431273 77.2399785,92.0851438 77.2399785,91.795805 L77.2399785,90.1386149 C77.2399785,89.8491273 77.0821438,89.6912926 76.792805,89.6912926 L74.319962,89.6912926 L74.319962,92.2431273 L76.792805,92.2431273 Z M77.2664579,87.9021521 C78.3711521,87.9021521 79.1341438,88.6651438 79.1341438,89.7702843 L79.1341438,92.1641355 C79.1341438,93.2691273 78.3711521,94.0318215 77.2664579,94.0318215 L74.319962,94.0318215 L74.319962,97.3729785 L72.4257967,97.3729785 L72.4257967,87.9021521 L77.2664579,87.9021521 Z" id="Fill-24" fill="#FEF7E6"></path>
                    </g>
                </g>
            </g>
        </g>
    </g>
</svg>